<?xml version="1.0" encoding="UTF-8"?>
<svg width="62.537mm" height="100.9mm" version="1.1" viewBox="0 0 221.58612 357.52067" xmlns="http://www.w3.org/2000/svg">
 <g transform="translate(2243.7 1619.7)">
  <g transform="matrix(.92559 .37854 -.37854 .92559 -705.04 704.92)">
   <path d="m-2124.1-1385a67.293 39.441 81.997 0 1 -29.688 72.129 67.293 39.441 81.997 0 1 -48.426 -61.147 67.293 39.441 81.997 0 1 29.688 -72.129 67.293 39.441 81.997 0 1 48.426 61.147z" color="#000000" color-rendering="auto" fill-rule="evenodd" image-rendering="auto" shape-rendering="auto" solid-color="#000000" style="isolation:auto;mix-blend-mode:normal"/>
   <path d="m-2169.3-1446.3-2.491 0.1842a67.293 39.441 81.997 0 1 2.4978 -0.1348l-0.01-0.049zm-3.3289 0.2471-5.1775 0.3841a67.293 39.441 81.997 0 0 -29.688 72.13 67.293 39.441 81.997 0 0 45.953 61.281l0.01 0.079 7.7517-0.62a67.293 39.441 81.997 0 1 -48.426 -61.146 67.293 39.441 81.997 0 1 29.578 -72.108z" color="#000000" color-rendering="auto" fill="#a0907f" fill-rule="evenodd" image-rendering="auto" shape-rendering="auto" solid-color="#000000" style="isolation:auto;mix-blend-mode:normal"/>
   <path d="m-2198-1431.3a62.906 39.38 80.731 0 0 -14.286 59.455 62.906 39.38 80.731 0 0 36.721 55.874 67.293 39.441 81.997 0 1 -31.957 -57.59 67.293 39.441 81.997 0 1 9.5216 -57.739z" color="#000000" color-rendering="auto" fill="#d5cec6" fill-rule="evenodd" image-rendering="auto" shape-rendering="auto" solid-color="#000000" style="isolation:auto;mix-blend-mode:normal"/>
   <path d="m-2162-1445.2c-20.696 4.4201-33.08 36.064-28.087 71.764 4.2392 30.107 19.783 54.803 37.923 60.252 1.2631-0.2789-0.9233 0.3269 0.298-0.1635-16.973-7.1052-31.33-31.793-35.346-60.089-4.6509-33.275 6.8414-64.41 25.526-71.645-1.0005-0.4244 0.691 0.1826-0.3144-0.119z" color="#000000" color-rendering="auto" fill="#d5cec6" fill-opacity=".96863" fill-rule="evenodd" image-rendering="auto" shape-rendering="auto" solid-color="#000000" style="isolation:auto;mix-blend-mode:normal"/>
   <path d="m-2217.7-1473.8-1.0607-88.035 2.2142-11.831c5.8135-11.156 23.201-16.811 42.448-16.155l59.177 32.78 2.375 90.25-30 19-34.23 3.689c-10.623-1.2923-24.322-5.0989-36.198-11.333-4.3764-6.2385-4.5281-12.566-4.7256-18.365z" fill-rule="evenodd"/>
   <path transform="translate(-2426.2 -1631.4)" d="m252.17 41.041c-0.21685-1.74e-4 -0.44194 0.01019-0.66015 0.01172-2.824 1.9746-5.7872 4.9344-6.8848 12.348-0.4398 2.9705-7.0967 5.6237-7.5625 2.1875-0.7686-5.6696 1.3574-10.423 4.8633-13.92-0.48491 0.05821-0.97343 0.12219-1.4648 0.18945-3.875 3.7878-6.8534 8.43-7.4922 14.387-0.228 2.1264-4.3156 4.5392-4.7188 0.59375-0.6129-5.9972 1.1897-8.2544 3.6875-13.25 0.0308-0.06152 0.0724-0.12227 0.10742-0.18359-0.58479 0.13458-1.1798 0.28389-1.7734 0.43164-3.2335 3.463-5.8773 8.1234-5.334 13.314 0.3243 3.0988-5.1855 6.2077-4.3125 1.5625 0.513-2.7296 0.5247-5.9642 1.3125-8.375 0.59876-1.8324 1.7675-3.5435 3.1445-5.082-0.59067 0.18138-1.1806 0.38456-1.7676 0.61328-3.4947 3.4965-5.6358 10.54-6.1894 14.969-0.3794 3.0313-3.2559 5.1097-2.75 1.0625-0.0157-5.3647 2.6894-10.537 5.8242-14.576-1.1382 0.61569-2.2454 1.3179-3.3125 2.0938-2.4764 3.8801-4.3985 8.7655-4.4492 13.107-0.015 1.2759-0.8432 4.4375-2.1875 4.4375-1.1019 0-0.375-3.4171-0.375-4.3125 0-3.21 1.5757-6.7452 3.1309-9.8633-4.1775 4.3274-7.0072 9.9623-6.8848 16.111l0.12305 6.2129c2.8783-0.89136 5.6652-1.6604 8.5039-2.4082 1.9753 1.5013 0.70014 3.0404 0.0566 4.5703-2.8559 1.1725-5.6568 2.1546-8.4551 3.1133l0.10351 5.168c3.0701-0.96371 6.0208-1.7743 9.0352-2.5684 1.9753 1.5012 0.70004 3.0385 0.0566 4.5684-3.0366 1.2467-6.0109 2.2811-8.9863 3.2969l0.10352 5.2559c3.2007-1.0141 6.2693-1.8602 9.4023-2.6855 1.9753 1.5012 0.70004 3.0384 0.0566 4.5684-3.1606 1.2975-6.2542 2.3647-9.3516 3.4199l0.10547 5.3457c3.0495-0.9558 5.9829-1.7617 8.9785-2.5508 1.9752 1.5012 0.70004 3.0384 0.0566 4.5684-3.0172 1.2387-5.9732 2.2674-8.9297 3.2773l0.10937 5.4629c2.8374-0.87565 5.5882-1.6353 8.3887-2.373 1.9753 1.5012 0.70014 3.0383 0.0566 4.5684-2.8168 1.1564-5.5798 2.1279-8.3398 3.0742l0.0957 4.877c2.9799-0.92937 5.8549-1.7198 8.7871-2.4922 1.9752 1.5013 0.70005 3.0383 0.0566 4.5684-2.9522 1.212-5.8456 2.2219-8.7383 3.2109l0.10938 5.4609c2.9933-0.93413 5.8797-1.7262 8.8242-2.502 1.9752 1.5013 0.70004 3.0365 0.0566 4.5664-2.9649 1.2172-5.8702 2.2316-8.7754 3.2246l0.11719 5.9121c2.8547-0.88214 5.6209-1.6447 8.4375-2.3867 1.9752 1.5013 0.70004 3.0364 0.0566 4.5664-2.8334 1.1632-5.6123 2.1402-8.3887 3.0918l0.0547 2.7598c0.1412 7.0899 1.0843 16.711 5.3047 18.738 1.4739 0.70797 2.9368 1.3718 4.3945 2.0156-3.7535-4.3058-7.0376-9.5156-6.4629-15.557-0.14155-1.6362 0.49977-2.4356 1.1758-2.418 0.67601 0.0176 1.3867 0.85277 1.3867 2.4805-0.10039 7.4943 4.8436 12.859 9.0586 17.654 2.7526 1.0894 5.4779 2.0736 8.1699 2.9394-2.7694-1.5058-5.5976-3.2344-8-4.9941-1.6566-1.2134-7.6813-8.789-7.0723-17.367 0.14477-1.8743 0.70764-2.6729 1.3301-2.6894 0.80028-0.0213 1.7006 1.2473 1.9414 3.1738-0.2751 6.5437 4.3842 13.525 8.8379 17.236 2.9854 2.751 7.5162 5.1135 11.553 7.0527 27.08 6.539 50.874 1.8837 70.914-9.5273 3.8728-2.2053 5.0522-2.7301 4.6133-18.236-8.2038-3.5667-15.676-5.3415-23.57-8.4883-0.6434-1.5224-1.9205-3.0435 0.0547-4.5684 7.2864 1.8326 14.219 3.7799 23.359 7.7324l-0.1914-6.0723c-8.132-3.5135-15.551-5.2827-23.387-8.4062-0.6434-1.5222-1.9205-3.0436 0.0547-4.5684 7.2367 1.8201 14.119 3.7504 23.166 7.6484l-0.17773-5.6777c-7.9012-3.3466-15.145-5.0948-22.791-8.1426-0.6434-1.5223-1.9205-3.0436 0.0547-4.5684 7.0813 1.781 13.808 3.6529 22.57 7.3848l-0.1582-5.0918c-7.5431-3.0985-14.521-4.8314-21.867-7.7598-0.6435-1.5223-1.9206-3.0437 0.0547-4.5684 6.8244 1.7164 13.339 3.5354 21.645 7.0039l-0.17383-5.5918c-7.5561-3.1078-14.544-4.8429-21.9-7.7754-0.6434-1.5224-1.9205-3.0436 0.0547-4.5684 6.8341 1.7187 13.357 3.5393 21.68 7.0176l-0.17188-5.5059c-7.507-3.0744-14.458-4.8068-21.773-7.7227-0.6434-1.5224-1.9187-3.0456 0.0566-4.5703 6.7982 1.7098 13.29 3.5225 21.549 6.9648l-0.1696-5.4766c-7.1581-2.8467-13.843-4.5623-20.859-7.3594-0.6434-1.5223-1.9206-3.0436 0.0547-4.5684 6.5439 1.6458 12.812 3.3948 20.637 6.5918l-0.16797-5.3828c-6.7555-2.5999-13.118-4.2747-19.783-6.9316-0.6435-1.5223-1.9187-3.0454 0.0566-4.5703 6.2324 1.5675 12.205 3.2188 19.518 6.1328-0.82485-12.959-7.4424-24.846-22.188-28.645-11.012-2.8365-22.9-6.9859-38.098-6.998zm-2.6191 23.314c0.5955-4e-3 1.1817 0.0015 1.7559 0.01953 10.693 0.3376 18.302 1.9093 26.375 3.8242 1.9753 2.4902 0.69819 3.3899 0.0547 4.5977-8.6311-0.7776-16.745-2.9701-25.877-3.1328-8.8271-0.1572-18.607 1.6355-30.547 5.3027l-0.31251-5.6387c8.4502-2.318 19.618-4.8977 28.551-4.9727zm0.74024 10.652c0.5956-4e-3 1.1797 0.0015 1.7539 0.01953 10.693 0.3376 18.304 1.9112 26.377 3.8262 1.9753 2.4901 0.69808 3.3879 0.0547 4.5957-8.631-0.7776-16.745-2.9701-25.877-3.1328-8.827-0.1571-18.607 1.6376-30.547 5.3047l-0.3125-5.6406c8.4504-2.3179 19.618-4.8987 28.551-4.9727zm0.57617 10.723c0.5955-4e-3 1.1816 0.0015 1.7559 0.01953 10.693 0.3376 18.302 1.9113 26.375 3.8262 1.9753 2.4901 0.69808 3.3878 0.0547 4.5957-8.631-0.7777-16.745-2.9702-25.877-3.1328-8.827-0.1572-18.607 1.6375-30.547 5.3047l-0.3125-5.6406c8.4503-2.318 19.618-4.8987 28.551-4.9727zm-0.21289 10.678c0.5955-4e-3 1.1816 0.0015 1.7559 0.01953 10.693 0.3376 18.304 1.9112 26.377 3.8262 1.9752 2.4901 0.69809 3.3878 0.0547 4.5957-8.631-0.7777-16.745-2.9683-25.877-3.1309-8.827-0.1572-18.609 1.6355-30.549 5.3027l-0.31055-5.6406c8.4503-2.3179 19.616-4.8987 28.549-4.9727zm-0.37305 10.748c0.5956-4e-3 1.1796 2e-3 1.7539 0.0195 10.693 0.3376 18.304 1.9113 26.377 3.8262 1.9753 2.4901 0.69819 3.3878 0.0547 4.5957-8.6311-0.7777-16.745-2.9702-25.877-3.1328-8.8271-0.1572-18.607 1.6376-30.547 5.3047l-0.3125-5.6406c8.4502-2.318 19.618-4.8987 28.551-4.9727zm0.59961 10.328c0.5955-4e-3 1.1817 2e-3 1.7559 0.0195 10.693 0.3376 18.302 1.9112 26.375 3.8262 1.9752 2.4901 0.69809 3.3878 0.0547 4.5957-8.631-0.7777-16.745-2.9702-25.877-3.1328-8.827-0.1572-18.607 1.6376-30.547 5.3047l-0.3125-5.6406c8.4503-2.318 19.618-4.8976 28.551-4.9726zm0.25195 10.863c0.5956-4e-3 1.1816 2e-3 1.7559 0.0195 10.693 0.3376 18.302 1.9113 26.375 3.8262 1.9752 2.4902 0.69809 3.3879 0.0547 4.5957-8.631-0.7776-16.745-2.9701-25.877-3.1328-8.827-0.1572-18.607 1.6375-30.547 5.3047l-0.3125-5.6406c8.4503-2.318 19.618-4.8976 28.551-4.9726zm-0.16406 11.234c0.5956-4e-3 1.1796 2e-3 1.7539 0.0195 10.693 0.3376 18.304 1.9113 26.377 3.8262 1.9752 2.4901 0.69809 3.3878 0.0547 4.5957-8.631-0.7777-16.745-2.9702-25.877-3.1328-8.827-0.1572-18.607 1.6376-30.547 5.3047l-0.3125-5.6406c8.4503-2.318 19.618-4.8987 28.551-4.9727zm-8.541 14.85c1.7713 0.10713 3.4395 0.99434 3.5723 2.5938 1.7488 13.168 16.585 16.671 27.125 20.75l-4 3.625c-13.748-4.5719-28.529-8.17-31-23.375-0.42255-2.5802 2.0254-3.7315 4.3027-3.5938zm-11.133 1.1191c1.3022-0.10365 2.6699 0.96003 2.6699 3.2383 1.4658 13.536 9.9711 16.382 19.533 21.125 2.6236 1.3014 9.1678 3.1586 10.959 3.4473-0.6564 0.2813-2.5014 1.2369-3.7109 1.7676-1.8643-0.2067-6.7914-1.3198-9.459-2.209-12.466-4.1554-20.35-10.462-22.273-23.6-0.25915-2.394 0.97904-3.6659 2.2812-3.7695zm-7.5469 1.9648c0.9994 0.031 2.084 1.3225 2.084 2.8652-0.2299 10.008 7.1493 17.793 17.59 21.301 1.8823 0.6274 7.1444 2.7262 8.043 3.0938l-2.1211 1.6797c-1.8916-0.2769-2.4117-0.46979-3.6914-0.99219-6.9436-2.8347-15.932-6.51-20.35-12.354-2.5554-3.3805-3.0122-8.2942-3.1836-12.906 0.12552-1.9738 0.85159-2.7116 1.6289-2.6875z" fill="#d5cec6" fill-rule="evenodd"/>
   <path transform="translate(-2426.2 -1631.4)" d="m249.22 50.598c-4.471-0.18476-5.2468 7.9581-6.332 12.645-0.0848 0.36624-0.17836 0.90118-0.28124 1.5859 2.3997-0.2815 4.7391-0.45417 6.9414-0.47266 0.5955-4e-3 1.1817 0.0015 1.7559 0.01953 0.64711 0.02043 1.2497 0.06057 1.875 0.08984-0.57812-7.7665-1.2158-12.95-1.8047-13.244-0.80126-0.40064-1.5156-0.59665-2.1543-0.62305zm2.6367 19.066c-3.1554-0.05619-6.4404 0.14919-9.8945 0.58789-0.16307 1.6175-0.32707 3.4634-0.49023 5.4844 3.0527-0.42259 6.0458-0.70556 8.8164-0.72852 0.5956-4e-3 1.1797 0.0015 1.7539 0.01953 0.62283 0.01966 1.2021 0.05806 1.8047 0.08594-0.0975-1.8684-0.19767-3.6661-0.30273-5.375-0.5625-0.02514-1.1174-0.06406-1.6875-0.07422zm0.74023 10.652c-3.6442-0.06486-7.4655 0.22152-11.52 0.81641-0.11641 1.7563-0.22417 3.5912-0.32617 5.5059 3.5035-0.53182 6.9502-0.882 10.113-0.9082 0.5955-4e-3 1.1816 0.0015 1.7559 0.01953 0.59115 0.01866 1.14 0.05596 1.7129 0.08203-0.0719-1.8897-0.15559-3.6474-0.23633-5.4492-0.50072-0.02094-0.99328-0.05738-1.5-0.06641zm0.57617 10.723c-3.9882-0.07103-8.1872 0.27754-12.676 0.99609-0.0713 1.7397-0.13549 3.5033-0.1875 5.3125 3.5824-0.55194 7.1096-0.91268 10.342-0.93945 0.5955-4e-3 1.1816 0.0015 1.7559 0.01953 0.78123 0.02466 1.514 0.06991 2.2637 0.10742-0.0485-1.8482-0.10787-3.631-0.16602-5.4375-0.44523-0.01746-0.88204-0.05058-1.332-0.05859zm-0.21094 10.68c-4.0181-0.0716-8.25 0.28231-12.777 1.0117-0.0277 1.7647-0.04 3.5489-0.043 5.3379 3.5117-0.53388 6.9665-0.88585 10.137-0.91211 0.5956-4e-3 1.1796 2e-3 1.7539 0.0195 0.98545 0.0311 1.9196 0.0834 2.8555 0.13477-0.0267-1.8496-0.0637-3.6714-0.10156-5.5117-0.60746-0.0284-1.208-0.0691-1.8242-0.0801zm-0.375 10.746c-3.9075-0.0696-8.0186 0.26657-12.404 0.95508 0.0235 1.6878 0.0638 3.3624 0.11523 5.0391 3.6652-0.57314 7.2757-0.94686 10.58-0.9746 0.5955-4e-3 1.1817 2e-3 1.7559 0.0195 0.80618 0.0254 1.5633 0.0722 2.3359 0.11132-3e-3 -1.678-0.0134-3.3512-0.0273-5.0469-0.78128-0.0427-1.5598-0.0893-2.3555-0.10352zm0.59961 10.328c-3.987-0.071-8.1847 0.27795-12.672 0.99609 0.095 1.8527 0.19778 3.6956 0.33594 5.4922 3.5611-0.5464 7.0659-0.90662 10.279-0.93359 0.5956-4e-3 1.1816 2e-3 1.7559 0.0195 0.69428 0.0219 1.3425 0.0636 2.0117 0.0957 0.0278-1.8429 0.0496-3.6903 0.0606-5.5918-0.59014-0.0271-1.173-0.0675-1.7715-0.0781zm0.25196 10.863c-3.818-0.068-7.8313 0.25228-12.104 0.9082 0.21431 1.9852 0.46272 3.9072 0.74609 5.7559 3.0765-0.42811 6.0935-0.71516 8.8848-0.73828 0.5956-4e-3 1.1796 2e-3 1.7539 0.0195 0.65383 0.0206 1.2629 0.0602 1.8945 0.0898 0.0777-1.9131 0.13346-3.9315 0.18554-5.9746-0.45491-0.0181-0.90145-0.0524-1.3613-0.0606zm-0.16407 11.234c-3.2644-0.0581-6.6619 0.1552-10.248 0.62696 1.504 6.982 5.8153 20.665 7.9941 18.486 1.6849-1.6849 2.7358-8.9774 3.3301-19.066-0.36042-0.0127-0.71263-0.0404-1.0762-0.0469z" fill="#a0907f" fill-rule="evenodd"/>
   <path transform="translate(-2426.2 -1631.4)" d="m236.61 60.529c-0.55722-0.01248-1.1502 0.06862-1.7656 0.25391l-21.031 6.332c-3.1331 0.94331-5.6772 4.2261-5.9023 7.5039 2.2914-0.68178 4.5521-1.3143 6.8359-1.916 1.9753 1.5013 0.70018 3.0404 0.0566 4.5703-2.3332 0.9579-4.6277 1.7775-6.916 2.5723v5.2832c2.5567-0.77344 5.0619-1.4741 7.5996-2.1426 1.9753 1.5012 0.70008 3.0385 0.0566 4.5684-2.5849 1.0612-5.1225 1.959-7.6562 2.832v5.3535c2.7584-0.84674 5.4493-1.6001 8.1758-2.3184 1.9753 1.5012 0.70008 3.0384 0.0566 4.5684-2.7805 1.1415-5.5074 2.0976-8.2324 3.0312v5.4336c2.6856-0.81996 5.3059-1.5496 7.9648-2.25 1.9752 1.5012 0.70008 3.0384 0.0566 4.5684-2.7087 1.112-5.3669 2.0471-8.0215 2.959v5.5469c2.5544-0.77342 5.055-1.4709 7.5898-2.1387 1.9753 1.5012 0.70018 3.0383 0.0566 4.5684-2.5814 1.0598-5.1164 1.958-7.6465 2.8301v4.9453c2.7656-0.84943 5.4558-1.5963 8.1894-2.3164 1.9752 1.5013 0.7001 3.0383 0.0566 4.5684-2.7851 1.1434-5.5169 2.1033-8.2461 3.0391v5.5195c2.8554-0.88225 5.6241-1.6465 8.4414-2.3887 1.9752 1.5013 0.70008 3.0365 0.0566 4.5664-2.8706 1.1785-5.6852 2.164-8.498 3.127v5.9629c2.7975-0.86106 5.514-1.6119 8.2774-2.3398 1.9752 1.5013 0.70008 3.0364 0.0566 4.5664-2.4143 0.99115-4.787 1.838-7.1543 2.6582 1.0785 1.1828 2.7976 1.6433 4.7461 1.0566l21.031-6.332c1.6246-0.48913 3.09-1.6092 4.1582-3.0293-4.9944 0.88807-10.369 2.2392-16.273 4.0527l-0.3125-5.6406c5.4336-1.4905 11.988-3.0813 18.352-4.0527v-5.8496c-5.4471 0.87176-11.328 2.2978-17.875 4.3086l-0.3125-5.6406c5.3866-1.4776 11.875-3.0536 18.188-4.0273v-5.543c-5.5173 0.86715-11.479 2.3058-18.127 4.3477l-0.3125-5.6406c5.4587-1.4974 12.048-3.0924 18.439-4.0625v-5.0664c-5.6832 0.85391-11.837 2.3254-18.727 4.4414l-0.3125-5.6406c5.6303-1.5445 12.461-3.1899 19.039-4.1484v-5.3398c-5.5804 0.86199-11.615 2.3111-18.354 4.3809l-0.31055-5.6406c5.5236-1.5151 12.202-3.1295 18.664-4.0957v-5.291c-5.5211 0.86687-11.487 2.306-18.141 4.3496l-0.3125-5.6406c5.4626-1.4984 12.057-3.0965 18.453-4.0664v-5.4551c-5.6804 0.85414-11.831 2.3247-18.717 4.4395l-0.3125-5.6406c5.6277-1.5436 12.454-3.1877 19.029-4.1465v-5.4199c-5.8827 0.8329-12.274 2.3464-19.457 4.5527l-0.31217-5.6387c5.8378-1.6014 12.965-3.309 19.764-4.248-0.0445-2.7239-1.7691-4.4974-4.1523-4.5508z" fill="#fff" fill-rule="evenodd"/>
   <path transform="translate(-2426.2 -1631.4)" d="m330.22 179.56a49.851 66.998 0 0 0 -49.852 66.998 49.851 66.998 0 0 0 49.852 67h16.617a49.851 66.998 0 0 1 -49.852 -67 49.851 66.998 0 0 1 49.852 -66.998h-16.617z" color="#000000" color-rendering="auto" fill-rule="evenodd" image-rendering="auto" shape-rendering="auto" solid-color="#000000" style="isolation:auto;mix-blend-mode:normal"/>
   <ellipse cx="-2079.4" cy="-1384.8" rx="49.851" ry="66.998" color="#000000" color-rendering="auto" fill="#d5cec6" fill-rule="evenodd" image-rendering="auto" shape-rendering="auto" solid-color="#000000" style="isolation:auto;mix-blend-mode:normal"/>
   <ellipse cx="-2062.4" cy="-1386.8" rx="32.88" ry="47.721" color="#000000" color-rendering="auto" fill="#7e6d5d" fill-rule="evenodd" image-rendering="auto" shape-rendering="auto" solid-color="#000000" style="isolation:auto;mix-blend-mode:normal"/>
   <path transform="translate(-2426.2 -1631.4)" d="m346.84 179.56a49.851 66.998 0 0 0 -49.852 66.998 49.851 66.998 0 0 0 49.852 67 49.851 66.998 0 0 0 4.1523 -0.26953 49.497 66.998 0 0 1 -45.518 -66.73 49.497 66.998 0 0 1 45.371 -66.729 49.851 66.998 0 0 0 -4.0059 -0.26953z" color="#000000" color-rendering="auto" fill="#a0907f" fill-rule="evenodd" image-rendering="auto" shape-rendering="auto" solid-color="#000000" style="isolation:auto;mix-blend-mode:normal"/>
   <path transform="translate(-2426.2 -1631.4)" d="m352.56 196.9a32.88 47.721 0 0 0 -32.881 47.719 32.88 47.721 0 0 0 32.881 47.721h11.25a32.88 47.721 0 0 1 -32.881 -47.721 32.88 47.721 0 0 1 32.881 -47.719h-11.25z" color="#000000" color-rendering="auto" fill="#a0907f" fill-rule="evenodd" image-rendering="auto" shape-rendering="auto" solid-color="#000000" style="isolation:auto;mix-blend-mode:normal"/>
   <path d="m-2042.3-1466.7c3.6956 4.4347 12.95 20 10.96 30.052 5.5599 6.6719 12.208 27.682 2.3891 40.162 0-5.3252-3.1078-16.946-7.2997-22.838-0.5448-2.1794 1.304-8.2048-3.5747-9.1924-17.005-2.1257-46.254 42.231-51.619 62.225-2.5518 5.9542-21.822 7.8002-18.738-4.5962 5.3247-21.299 23.892-45.661 39.244-61.518 4.8067-8.3934-4.192-15.496-6.0104-17.678-5.1182-5.0515-0.1299-8.8151 1.7678-9.8995z" color="#000000" color-rendering="auto" image-rendering="auto" shape-rendering="auto" solid-color="#000000" style="isolation:auto;mix-blend-mode:normal"/>
   <path d="m-2198.7-1431.2c-6.2783 6.2783-13.405 20.022-14.319 33.588-0.1913 2.8395-0.8017 6.5468-1.5911 9.3692-5.8841-5.8841-10.447-18.468-11.137-27.047-11.215 7.0095-24.062-7.0775-17.324-18.562-45.554-91.35-26.773-167.43 64.347-182.43 86.817-12.334 123.85 75.222 139.9 118.33 7.1464 6.7929 11.348 13.742 4.7051 23.803-5.8427 5.8427-20.436 14.13-35.002 16.971-10.281-5.8747-20.39-26.07-3.182-31.378 14.431 2.9954-41.414-110.68-102.53-101.2-32.628 5.0592-49.02 24.796-56.922 51.265-8.3142 27.85 2.3855 68.922 16.617 90.156 8.1336-5.824 19.09 10.503 14.142 16.44z" color="#000000" color-rendering="auto" image-rendering="auto" shape-rendering="auto" solid-color="#000000" style="isolation:auto;mix-blend-mode:normal"/>
   <path transform="translate(-2426.2 -1631.4)" d="m243.43 21.871c-37.811 0.43843-61.429 26.338-74.074 49.502-6.0052 11-7.7344 37.024-9.0293 49.811-0.13696 7.2948-0.62852 1.3934 0.51171 9.25 14.303-43.289 17.744-81.287 60.844-95.477 41.038-13.511 83.037 11.324 108.4 53.719 8.3418 11.151 15.055 22.482 19.592 31.912 0.42173-6.5384-5.064-19.378-9.5527-28.355-14.016-27.377-49.696-65.269-84.5-69.648-4.2188-0.53083-8.2819-0.75824-12.193-0.71289z" color="#000000" color-rendering="auto" fill="#d5cec6" image-rendering="auto" opacity=".391" shape-rendering="auto" solid-color="#000000" style="isolation:auto;mix-blend-mode:normal"/>
   <path transform="translate(-2426.2 -1631.4)" d="m300.65 181.23c-8.8109 3.8092-18.248 6.3472-28.295 7.2656-0.33786 6.4997-0.56675 13.872-0.85742 20.652-0.64561 9.4388 5.5852 16.187 11.631 15.656a49.851 66.998 0 0 1 14.418 -28.797c0.49101-2.9835 1.0286-6.0442 1.8262-9.2344 0.32329-1.2933 1.0265-3.6118 1.2773-5.543z" color="#000000" color-rendering="auto" fill="#a0907f" image-rendering="auto" shape-rendering="auto" solid-color="#000000" style="isolation:auto;mix-blend-mode:normal"/>
   <path transform="translate(-2426.2 -1631.4)" d="m280.78 187.32c-0.50614 0.0942-1.012 0.18949-1.5215 0.27539 0.50945-0.0862 1.0154-0.18086 1.5215-0.27539zm-31.734 0.45312c-2.0188 18.053-4.0322 41.464 22.957 38.006 2.2448-0.28763 6.6424-0.2521 9.1973-1.0586-5.3634-0.86798-10.274-7.1357-9.6973-15.566 0.29067-6.7801 0.51956-14.153 0.85742-20.652 0.32549-0.0298 0.64455-0.0762 0.96875-0.10938-7.7411 0.79034-15.836 0.64502-24.283-0.61914zm28.053 0.1543c-0.5773 0.0832-1.1549 0.16385-1.7363 0.23633 0.58131-0.0726 1.1592-0.15289 1.7363-0.23633z" color="#000000" color-rendering="auto" fill="#fff" image-rendering="auto" shape-rendering="auto" solid-color="#000000" style="isolation:auto;mix-blend-mode:normal"/>
   <path transform="translate(-2426.2 -1631.4)" d="m286.69 200.42a7.5572 8.3527 0 0 0 -7.5566 8.3535 7.5572 8.3527 0 0 0 6.3789 8.2402 49.851 66.998 0 0 1 6.7852 -13.826 7.5572 8.3527 0 0 0 -5.6074 -2.7676z" color="#000000" color-rendering="auto" fill="#fff" fill-rule="evenodd" image-rendering="auto" opacity=".391" shape-rendering="auto" solid-color="#000000" style="isolation:auto;mix-blend-mode:normal"/>
   <path d="m-2146-1406.9c0.031 0.01 0.063 0.017 0.094 0.025-0.031-0.01-0.063-0.016-0.094-0.025z" fill="#cfc8c0" fill-rule="evenodd"/>
   <path d="m-2145.1-1406.7c-2.5549 0.8065-6.9525 0.771-9.1973 1.0586-4.1364 0.5299-7.5846 0.4229-10.463-0.1934l59.137 141.71 22.627-9.545-19.945-44.906a49.851 66.998 0 0 1 -42.988 -66.287 49.851 66.998 0 0 1 2.7637 -21.752c-0.6458 0.057-1.2923 0.014-1.9336-0.09z" fill="#cfc8c0" fill-rule="evenodd"/>
   <path transform="translate(-2426.2 -1631.4)" d="m263.93 225.96 59.789 140.05 4.1953-1.7695-27.061-63.65a49.851 66.998 0 0 1 -20.184 -47.469l-11.514-27.08c-1.9012 0.11606-3.6387 0.0835-5.2266-0.0859z" fill="#54514e" fill-opacity=".96863" fill-rule="evenodd" opacity=".388"/>
  </g>
 </g>
</svg>
