<?xml version="1.0" standalone="no"?><!DOCTYPE svg PUBLIC "-//W3C//DTD SVG 1.1//EN" "http://www.w3.org/Graphics/SVG/1.1/DTD/svg11.dtd"><svg t="1701720390115" class="icon" viewBox="0 0 1024 1024" version="1.1" xmlns="http://www.w3.org/2000/svg" p-id="7378" xmlns:xlink="http://www.w3.org/1999/xlink" width="200" height="200"><path d="M717.12 394.88v12.592h-0.32v218.656h-48v-48h0.32V397.616a11.248 11.248 0 0 1-0.08-1.28v-36.864h48v34.752l0.08 0.64zM648.528 748.8h-68.256a85.328 85.328 0 1 1 0-170.672h88.848V397.616a11.248 11.248 0 0 1-0.08-1.28V336a48 48 0 0 1 48-48h71.232a48 48 0 0 1 48 48v23.472a48 48 0 0 1-48 48H716.8v273.056a68.272 68.272 0 0 1-68.272 68.272z m-67.2-122.704a37.344 37.344 0 0 0 0 74.688h71.504a16 16 0 0 0 16-16V626.08h-87.488zM716.912 336v23.568h71.36V336h-71.36z m-529.76-48H580.88c6.16 0 11.136 4.976 11.136 11.136v25.728A11.136 11.136 0 0 1 580.88 336H187.136A11.136 11.136 0 0 1 176 324.864v-25.728c0-6.16 4.976-11.136 11.136-11.136zM580.88 464c-15.84 0-29.328 9.984-34.56 24 5.232 14.016 18.72 24 34.56 24H187.136c15.84 0 29.328-9.984 34.56-24a36.88 36.88 0 0 0-34.56-24h393.728z m-393.728 0H580.88c6.16 0 11.136 4.976 11.136 11.136v25.728A11.136 11.136 0 0 1 580.88 512H187.136A11.136 11.136 0 0 1 176 500.864v-25.728c0-6.16 4.976-11.136 11.136-11.136z m0 192H404.88c6.16 0 11.136 4.976 11.136 11.136v25.728A11.136 11.136 0 0 1 404.88 704H187.136A11.136 11.136 0 0 1 176 692.864v-25.728c0-6.16 4.976-11.136 11.136-11.136z" p-id="7379"></path></svg>